<svg id="Capa_1" enable-background="new 0 0 512 512" height="512" viewBox="0 0 512 512" width="512" xmlns="http://www.w3.org/2000/svg" xmlns:xlink="http://www.w3.org/1999/xlink"><linearGradient id="SVGID_1_" gradientUnits="userSpaceOnUse" x1="0" x2="512" y1="256" y2="256"><stop offset="0" stop-color="#9dd6fc"/><stop offset=".0056" stop-color="#9dd6fc"/><stop offset="1" stop-color="#d17ff7"/></linearGradient><g><g><g><path d="m256 0c-143.551 0-256 112.449-256 256s112.449 256 256 256c143.552 0 256-112.449 256-256s-112.448-256-256-256zm0 472c-121.122 0-216-94.878-216-216s94.878-216 216-216c121.121 0 216 94.878 216 216s-94.879 216-216 216zm149.923-313.365-140-80c-6.148-3.514-13.697-3.514-19.846 0l-140 80c-6.414 3.697-10.077 10.441-10.077 17.365v160c0 7.177 3.846 13.804 10.077 17.365l140 80c6.052 3.46 13.61 3.582 19.901-.032l139.944-79.968c6.232-3.561 10.078-10.188 10.078-17.365v-160c0-6.959-3.689-13.685-10.077-17.365zm-169.923 222.901-100-57.143v-113.93l100 57.143zm20-148.571-99.689-56.965 99.689-56.965 99.689 56.965zm120 91.429-100 57.143v-113.93l100-57.143z" fill="url(#SVGID_1_)"/></g></g></g></svg>