<?xml version="1.0" encoding="iso-8859-1"?>
<!-- Generator: Adobe Illustrator 19.0.0, SVG Export Plug-In . SVG Version: 6.00 Build 0)  -->
<svg version="1.1" id="Capa_1" xmlns="http://www.w3.org/2000/svg" xmlns:xlink="http://www.w3.org/1999/xlink" x="0px" y="0px"
	 viewBox="0 0 512 512" style="enable-background:new 0 0 512 512;" xml:space="preserve">
<linearGradient id="SVGID_1_" gradientUnits="userSpaceOnUse" x1="23" y1="258.0002" x2="489" y2="258.0002" gradientTransform="matrix(1 0 0 -1 0 514.0002)">
	<stop  offset="0" style="stop-color:#80D8FF"/>
	<stop  offset="1" style="stop-color:#EA80FC"/>
</linearGradient>
<path style="fill:url(#SVGID_1_);" d="M214.793,501.006L64.284,414.205C38.819,399.52,23,372.133,23,342.733V169.266
	c0-29.4,15.819-56.787,41.285-71.472l150.508-86.801c25.417-14.657,56.998-14.658,82.414,0l150.509,86.801
	C473.181,112.48,489,139.867,489,169.266v173.467c0,29.4-15.819,56.787-41.285,71.472l-150.508,86.801
	C271.794,515.662,240.214,515.667,214.793,501.006z M234.774,45.651L84.266,132.452C71.148,140.016,63,154.123,63,169.266v173.467
	c0,15.144,8.148,29.25,21.265,36.815l150.509,86.801c13.093,7.552,29.358,7.552,42.451,0l150.509-86.801
	C440.852,371.984,449,357.877,449,342.733V169.266c0-15.144-8.148-29.25-21.265-36.815l-150.509-86.8
	C264.138,38.102,247.868,38.099,234.774,45.651z M162.713,334.132l74.281-62.863c9.45-7.997,9.423-22.565,0-30.54l-74.281-62.863
	c-8.431-7.136-21.052-6.085-28.187,2.349c-7.135,8.434-6.083,21.055,2.349,28.191L193.113,256l-56.238,47.593
	c-8.432,7.136-9.483,19.757-2.349,28.191C141.678,340.236,154.302,341.251,162.713,334.132z M382.206,318.862
	c0-11.048-8.954-20.003-20-20.003h-89.995c-11.046,0-20,8.955-20,20.003s8.954,20.003,20,20.003h89.995
	C373.251,338.865,382.206,329.91,382.206,318.862z"/>
<g>
</g>
<g>
</g>
<g>
</g>
<g>
</g>
<g>
</g>
<g>
</g>
<g>
</g>
<g>
</g>
<g>
</g>
<g>
</g>
<g>
</g>
<g>
</g>
<g>
</g>
<g>
</g>
<g>
</g>
</svg>
