<svg id="Capa_1" enable-background="new 0 0 512 512" height="512" viewBox="0 0 512 512" width="512" xmlns="http://www.w3.org/2000/svg" xmlns:xlink="http://www.w3.org/1999/xlink"><linearGradient id="SVGID_1_" gradientUnits="userSpaceOnUse" x1="0" x2="512" y1="256" y2="256"><stop offset="0" stop-color="#80d8ff"/><stop offset="1" stop-color="#ea80fc"/></linearGradient><path d="m256 0c-141.484 0-256 114.497-256 256 0 141.483 114.497 256 256 256 141.483 0 256-114.497 256-256 0-141.483-114.497-256-256-256zm215.079 236h-97.094c-.577-17.129-1.908-33.974-3.96-50.385 42.49-31.634 25.264-98.903-26.952-106.342-4.096-9.605-8.494-18.408-13.175-26.349 74.624 27.103 133.258 96.216 141.181 183.076zm-215.079 236c-15.656 0-32.969-17.899-47.072-47.815 16.649-10.52 27.738-29.076 27.738-50.185 0-31.531-24.726-57.386-55.805-59.219-1.41-12.677-2.359-25.632-2.835-38.781h155.944c-1.894 52.847-11.273 101.682-26.899 139.185-14.824 35.576-33.916 56.815-51.071 56.815zm-78.667-117.333c10.66 0 19.333 8.673 19.333 19.333s-8.673 19.333-19.333 19.333-19.333-8.673-19.333-19.333 8.673-19.333 19.333-19.333zm.697-118.667c1.894-52.847 11.273-101.682 26.899-139.185 14.823-35.576 33.915-56.815 51.071-56.815 15.656 0 32.969 17.899 47.071 47.816-16.649 10.52-27.738 29.076-27.738 50.184 0 31.531 24.726 57.386 55.805 59.219 1.41 12.677 2.359 25.632 2.835 38.781zm156.637-78.667c-10.661 0-19.334-8.673-19.334-19.333s8.673-19.333 19.334-19.333c10.66 0 19.333 8.673 19.333 19.333s-8.673 19.333-19.333 19.333zm-152.499-104.434c-30.082 50.826-42.152 123.546-44.16 183.101h-97.087c7.939-87.028 66.737-156.067 141.247-183.101zm-141.247 223.101h97.094c.578 17.129 1.909 33.974 3.961 50.385-42.49 31.634-25.263 98.902 26.952 106.342 4.096 9.606 8.494 18.408 13.175 26.35-74.625-27.104-133.259-96.217-141.182-183.077zm288.91 183.101c30.068-50.805 42.151-123.499 44.16-183.101h97.088c-7.939 87.029-66.738 156.067-141.248 183.101z" fill="url(#SVGID_1_)"/></svg>