<?xml version="1.0" encoding="iso-8859-1"?>
<!-- Generator: Adobe Illustrator 19.0.0, SVG Export Plug-In . SVG Version: 6.00 Build 0)  -->
<svg version="1.1" id="Capa_1" xmlns="http://www.w3.org/2000/svg" xmlns:xlink="http://www.w3.org/1999/xlink" x="0px" y="0px"
	 viewBox="0 0 477.853 477.853" style="enable-background:new 0 0 477.853 477.853;" xml:space="preserve">
<g>
	<g>
		<path d="M475.789,230.82c-1.581-2.929-3.984-5.332-6.912-6.912l-67.191-36.181l67.191-36.181
			c5.526-2.975,8.974-8.743,8.977-15.019c-0.003-6.276-3.451-12.044-8.977-15.019L247.01,2.041c-5.05-2.719-11.129-2.719-16.179,0
			L8.964,121.508c-8.295,4.477-11.389,14.83-6.912,23.125c1.581,2.929,3.984,5.332,6.912,6.912l67.192,36.181L8.964,223.908
			c-8.295,4.477-11.389,14.83-6.912,23.125c1.581,2.929,3.984,5.332,6.912,6.912l67.191,36.181L8.964,326.308
			c-8.295,4.477-11.389,14.83-6.912,23.125c1.581,2.929,3.984,5.332,6.912,6.912L230.83,475.812c5.05,2.719,11.129,2.719,16.179,0
			l221.867-119.467c8.295-4.477,11.389-14.83,6.912-23.125c-1.581-2.929-3.984-5.332-6.912-6.912l-67.191-36.181l67.191-36.181
			C477.171,249.468,480.266,239.115,475.789,230.82z M53.047,136.527L238.92,36.448l185.873,100.079L238.92,236.606L53.047,136.527z
			 M424.793,341.327L238.92,441.406L53.047,341.327l59.085-31.812l118.699,63.898c5.05,2.719,11.129,2.719,16.179,0l118.699-63.898
			L424.793,341.327z M238.92,339.006L53.047,238.927l59.085-31.812l118.699,63.898c5.05,2.719,11.129,2.719,16.179,0l118.699-63.898
			l59.085,31.812L238.92,339.006z"/>
	</g>
</g>
<g>
</g>
<g>
</g>
<g>
</g>
<g>
</g>
<g>
</g>
<g>
</g>
<g>
</g>
<g>
</g>
<g>
</g>
<g>
</g>
<g>
</g>
<g>
</g>
<g>
</g>
<g>
</g>
<g>
</g>
</svg>
