<svg height="512pt" viewBox="0 0 511 512" width="512pt" xmlns="http://www.w3.org/2000/svg"><path d="m55.292969 256c39.96875 33.359375 63.863281 83.292969 63.863281 136.253906v21.078125c0 32.351563 26.316406 58.667969 58.664062 58.667969 11.046876 0 20 8.953125 20 20s-8.953124 20-20 20c-54.402343 0-98.664062-44.261719-98.664062-98.667969v-21.078125c0-48.90625-26.3125-94.480468-68.667969-118.933594-13.332031-7.695312-13.304687-26.960937 0-34.640624 42.355469-24.453126 68.667969-70.027344 68.667969-118.9375v-21.074219c0-54.40625 44.261719-98.667969 98.664062-98.667969 11.046876 0 20 8.953125 20 20s-8.953124 20-20 20c-32.347656 0-58.664062 26.316406-58.664062 58.667969v21.078125c0 52.960937-23.894531 102.894531-63.863281 136.253906zm447.195312-17.320312c-42.355469-24.453126-68.667969-70.027344-68.667969-118.933594v-21.078125c0-54.40625-44.261718-98.667969-98.664062-98.667969-11.046875 0-20 8.953125-20 20s8.953125 20 20 20c32.347656 0 58.664062 26.316406 58.664062 58.667969v21.078125c0 52.960937 23.894532 102.894531 63.863282 136.253906-39.96875 33.359375-63.863282 83.292969-63.863282 136.253906v21.078125c0 32.351563-26.316406 58.667969-58.664062 58.667969-11.046875 0-20 8.953125-20 20s8.953125 20 20 20c54.402344 0 98.664062-44.261719 98.664062-98.667969v-21.078125c0-48.90625 26.3125-94.480468 68.667969-118.933594 13.304688-7.679687 13.328125-26.945312 0-34.640624zm0 0"/></svg>