<svg id="Capa_1" enable-background="new 0 0 512 512" height="512" viewBox="0 0 512 512" width="512" xmlns="http://www.w3.org/2000/svg" xmlns:xlink="http://www.w3.org/1999/xlink"><linearGradient id="SVGID_1_" gradientUnits="userSpaceOnUse" x1="0" x2="512" y1="256" y2="256"><stop offset="0" stop-color="#80d8ff"/><stop offset="1" stop-color="#ea80fc"/></linearGradient><g><path d="m491.746.001c-78.878.998-157.002 32.091-215.974 91.065l-77.308 77.308c-40.104-27.17-96.078-23.796-132.671 12.798l-59.937 59.936c-7.806 7.806-7.809 20.475 0 28.285 35.865 35.863 91.746 40.39 132.656 12.782l31.514 31.513-45.794 45.794c-7.811 7.811-7.811 20.475 0 28.285 7.809 7.809 20.474 7.811 28.284 0l45.795-45.795 31.498 31.498c-27.17 40.105-23.796 96.078 12.798 132.672 7.81 7.81 20.472 7.81 28.284 0l59.937-59.937c36.584-36.584 39.975-92.555 12.798-132.671l77.308-77.308c55.78-55.78 90.009-132.581 91.065-215.975.14-11.069-8.786-20.338-20.253-20.25zm-366.017 241.107c-20.317 20.318-50.888 24.287-75.213 11.908l43.56-43.561c20.837-20.835 51.54-24.042 75.233-11.928zm176.813 176.813-43.58 43.581c-12.117-23.697-8.903-54.403 11.928-75.233l43.58-43.58c12.117 23.697 8.903 54.402-11.928 75.232zm90.107-209.979c-7.898 7.898-127.987 127.987-135.901 135.901l-30.154-30.154 45.795-45.795c7.811-7.811 7.811-20.475 0-28.285-7.811-7.811-20.474-7.811-28.284 0l-45.795 45.795-30.153-30.153c8.293-8.293 128.369-128.369 135.901-135.901 46.47-46.469 106.314-72.733 166.841-78.248-5.517 60.528-31.782 120.371-78.25 166.84z" fill="url(#SVGID_1_)"/></g></svg>