<svg viewBox="0 0 512 512" xmlns="http://www.w3.org/2000/svg" xmlns:xlink="http://www.w3.org/1999/xlink"><linearGradient id="a" gradientTransform="matrix(1 0 0 -1 0 -18530)" gradientUnits="userSpaceOnUse" x1="0" x2="512" y1="-18786" y2="-18786"><stop offset="0" stop-color="#31d8ff"/><stop offset="1" stop-color="#ff80ff"/></linearGradient><path d="m512 256c0 141.386719-114.613281 256-256 256s-256-114.613281-256-256 114.613281-256 256-256 256 114.613281 256 256zm0 0" fill="url(#a)"/><path d="m393.585938 306.796875c-3.820313 0-7.53125.464844-11.089844 1.320313l-89.96875-144.132813c6.796875-8.207031 10.886718-18.734375 10.886718-30.195313 0-26.144531-21.269531-47.417968-47.414062-47.417968s-47.414062 21.273437-47.414062 47.417968c0 11.460938 4.089843 21.988282 10.886718 30.195313l-89.96875 144.132813c-3.5625-.855469-7.269531-1.320313-11.089844-1.320313-26.144531 0-47.414062 21.269531-47.414062 47.414063 0 26.144531 21.269531 47.414062 47.414062 47.414062 20.902344 0 38.679688-13.601562 44.96875-32.414062h47.648438c6.289062 18.8125 24.066406 32.414062 44.96875 32.414062s38.675781-13.601562 44.96875-32.414062h47.644531c6.292969 18.8125 24.066407 32.414062 44.96875 32.414062 26.144531 0 47.414063-21.269531 47.414063-47.414062 0-26.144532-21.265625-47.414063-47.410156-47.414063zm-122.585938 2.445313v-123.09375l86.054688 137.867187c-3.6875 4.457031-6.566407 9.597656-8.4375 15.195313h-47.648438c-4.714844-14.09375-15.875-25.253907-29.96875-29.96875zm-59.96875 29.96875h-47.644531c-1.875-5.597657-4.753907-10.742188-8.441407-15.195313l86.054688-137.867187v123.09375c-14.09375 4.714843-25.253906 15.875-29.96875 29.96875zm44.96875-222.839844c9.601562 0 17.414062 7.8125 17.414062 17.414062 0 9.605469-7.8125 17.417969-17.414062 17.417969s-17.414062-7.8125-17.414062-17.417969c0-9.601562 7.8125-17.414062 17.414062-17.414062zm-137.585938 255.253906c-9.601562 0-17.414062-7.8125-17.414062-17.414062 0-9.601563 7.8125-17.414063 17.414062-17.414063 9.601563 0 17.414063 7.8125 17.414063 17.414063 0 9.601562-7.808594 17.414062-17.414063 17.414062zm137.585938 0c-9.601562 0-17.414062-7.8125-17.414062-17.414062 0-9.601563 7.8125-17.414063 17.414062-17.414063s17.414062 7.8125 17.414062 17.414063c0 9.601562-7.8125 17.414062-17.414062 17.414062zm137.585938 0c-9.605469 0-17.414063-7.8125-17.414063-17.414062 0-9.601563 7.8125-17.414063 17.414063-17.414063 9.601562 0 17.414062 7.8125 17.414062 17.414063 0 9.601562-7.8125 17.414062-17.414062 17.414062zm0 0" fill="#fff"/></svg>