<?xml version="1.0" encoding="iso-8859-1"?>
<!-- Generator: Adobe Illustrator 19.0.0, SVG Export Plug-In . SVG Version: 6.00 Build 0)  -->
<svg version="1.1" id="Capa_1" xmlns="http://www.w3.org/2000/svg" xmlns:xlink="http://www.w3.org/1999/xlink" x="0px" y="0px"
	 viewBox="0 0 512 512" style="enable-background:new 0 0 512 512;" xml:space="preserve">
<linearGradient id="SVGID_1_" gradientUnits="userSpaceOnUse" x1="0" y1="258" x2="512" y2="258" gradientTransform="matrix(1 0 0 -1 0 514)">
	<stop  offset="0" style="stop-color:#80D8FF"/>
	<stop  offset="1" style="stop-color:#EA80FC"/>
</linearGradient>
<path style="fill:url(#SVGID_1_);" d="M447,344c-5.442,0-10.726,0.681-15.781,1.947L305.691,144.839
	C315.233,133.523,321,118.926,321,103c0-35.841-29.159-65-65-65s-65,29.159-65,65c0,15.926,5.767,30.523,15.309,41.839
	L80.781,345.947C75.726,344.681,70.442,344,65,344c-35.841,0-65,29.159-65,65s29.159,65,65,65c28.864,0,53.381-18.917,61.838-45
	h67.324c8.457,26.083,32.974,45,61.838,45s53.381-18.917,61.838-45h67.324c8.457,26.083,32.974,45,61.838,45
	c35.841,0,65-29.159,65-65S482.841,344,447,344z M276,347.162v-174.35l121.309,194.349c-5.362,6.358-9.525,13.752-12.147,21.839
	h-67.324C311.426,369.222,295.778,353.574,276,347.162z M194.162,389h-67.324c-2.622-8.086-6.785-15.481-12.147-21.839L236,172.812
	v174.35C216.222,353.574,200.574,369.222,194.162,389z M256,78c13.785,0,25,11.215,25,25s-11.215,25-25,25s-25-11.215-25-25
	S242.215,78,256,78z M65,434c-13.785,0-25-11.215-25-25s11.215-25,25-25s25,11.215,25,25S78.785,434,65,434z M256,434
	c-13.785,0-25-11.215-25-25s11.215-25,25-25s25,11.215,25,25S269.785,434,256,434z M447,434c-13.785,0-25-11.215-25-25
	s11.215-25,25-25s25,11.215,25,25S460.785,434,447,434z"/>
<g>
</g>
<g>
</g>
<g>
</g>
<g>
</g>
<g>
</g>
<g>
</g>
<g>
</g>
<g>
</g>
<g>
</g>
<g>
</g>
<g>
</g>
<g>
</g>
<g>
</g>
<g>
</g>
<g>
</g>
</svg>
