<svg id="Capa_1" enable-background="new 0 0 512 512" height="512" viewBox="0 0 512 512" width="512" xmlns="http://www.w3.org/2000/svg" xmlns:xlink="http://www.w3.org/1999/xlink"><linearGradient id="SVGID_1_" gradientUnits="userSpaceOnUse" x1="0" x2="512" y1="256" y2="256"><stop offset="0" stop-color="#9dd6fc"/><stop offset=".0056" stop-color="#9dd6fc"/><stop offset="1" stop-color="#d17ff7"/></linearGradient><g><g><g><path d="m492 336h-20.839c-6.092-74.037-44.843-153.375-104.973-200h29.252c8.256 23.278 30.487 40 56.56 40 33.084 0 60-26.916 60-60s-26.916-60-60-60c-26.073 0-48.303 16.722-56.56 40h-79.44v-20c0-11.046-8.954-20-20-20h-80c-11.046 0-20 8.954-20 20v20h-79.44c-8.257-23.278-30.487-40-56.56-40-33.084 0-60 26.916-60 60s26.916 60 60 60c26.073 0 48.303-16.722 56.56-40h29.253c-60.131 46.625-98.881 125.961-104.974 200h-20.839c-11.046 0-20 8.954-20 20v80c0 11.046 8.954 20 20 20h80c11.046 0 20-8.954 20-20v-80c0-11.046-8.954-20-20-20h-18.983c7.084-71.28 50.723-152.001 114.983-184.933v4.933c0 11.046 8.954 20 20 20h80c11.046 0 20-8.954 20-20v-4.933c64.26 32.931 107.899 113.652 114.983 184.933h-18.983c-11.046 0-20 8.954-20 20v80c0 11.046 8.954 20 20 20h80c11.046 0 20-8.954 20-20v-80c0-11.046-8.954-20-20-20zm-40-240c11.028 0 20 8.972 20 20s-8.972 20-20 20-20-8.972-20-20 8.972-20 20-20zm-392 40c-11.028 0-20-8.972-20-20s8.972-20 20-20 20 8.972 20 20-8.972 20-20 20zm20 280h-40v-40h40zm196-293.859v.016 13.843h-40v-40h40zm196 293.859h-40v-40h40z" fill="url(#SVGID_1_)"/></g></g></g></svg>